<svg xmlns="http://www.w3.org/2000/svg" viewBox="0 0 18.34 19.06"><title>vinetaBlack</title><g id="Capa_2" data-name="Capa 2"><g id="Consulta"><path d="M7.78,15.14a6.63,6.63,0,0,1-5.46-3.2,5.64,5.64,0,0,1-.59-4.59,8.51,8.51,0,0,1,4.33-5.1A7.32,7.32,0,0,1,9.33,1.5a7.45,7.45,0,0,1,3.05.64l.7,4.91c.4,2.77-.17,6.22-3,7.61A6,6,0,0,1,7.78,15.14Zm8.93-7.29A8.65,8.65,0,0,0,15.83,6L14,3.19c.15.13.29.27.43.41a7.13,7.13,0,0,1,1.83,2.82l0,.08,0,.07A6.82,6.82,0,0,1,16.71,7.85Z"/><path d="M9.33,3h0A6.07,6.07,0,0,1,11,3.24l.58,4c.32,2.22-.06,5-2.07,6a4.58,4.58,0,0,1-1.74.36,5.15,5.15,0,0,1-4.18-2.5,4.12,4.12,0,0,1-.42-3.39A7,7,0,0,1,6.74,3.59,5.81,5.81,0,0,1,9.33,3m0-3A8.82,8.82,0,0,0,5.39.91c-4.31,2.16-7,7.55-4.31,11.86a8.16,8.16,0,0,0,6.7,3.87,7.59,7.59,0,0,0,3-.63c3.24-1.62,4.31-5.39,3.78-9.17,3.63,5.7-2.7,11.9-8.46,11.9-.24,0-.47,0-.7,0a10.36,10.36,0,0,0,2.67.36c6.87,0,12.11-7,9.65-13.06a8.46,8.46,0,0,0-2.18-3.43A8.52,8.52,0,0,0,9.33,0Z"/></g></g></svg>